<?xml version="1.0" standalone="no"?>
<!DOCTYPE svg PUBLIC "-//W3C//DTD SVG 20010904//EN"
 "http://www.w3.org/TR/2001/REC-SVG-20010904/DTD/svg10.dtd">
<svg version="1.0" xmlns="http://www.w3.org/2000/svg"
 width="120.000000pt" height="120.000000pt" viewBox="0 0 120.000000 120.000000"
 preserveAspectRatio="xMidYMid meet">

<g transform="translate(0.000000,120.000000) scale(0.100000,-0.100000)"
fill="#000000" stroke="none">
<path d="M297 1152 c-15 -128 -121 -234 -249 -249 l-50 -6 5 -196 c3 -137 10
-214 21 -255 56 -204 223 -368 426 -421 82 -22 225 -22 304 0 257 69 437 303
438 570 2 275 -174 505 -445 582 -34 10 -121 17 -248 20 l-196 5 -6 -50z m331
-252 c97 0 223 -98 257 -199 23 -70 17 -179 -13 -238 -28 -53 -80 -106 -135
-135 -35 -19 -58 -23 -137 -23 -79 0 -102 4 -137 23 -88 47 -149 132 -160 223
l-6 49 -141 1 c-108 1 -128 3 -86 9 140 19 253 74 350 170 97 98 165 242 172
366 1 22 4 -25 5 -103 l4 -143 27 0z"/>
</g>
</svg>
